<?xml version="1.0" encoding="UTF-8"?>
<svg width="79.375mm" height="79.375mm" version="1.1" viewBox="0 0 79.375 79.375" xmlns="http://www.w3.org/2000/svg">
<g transform="translate(-38.618 -136.65)">
<g transform="matrix(.2083 0 0 -.20838 -9.3833 239.88)">
<g fill-rule="evenodd">
<path d="m316.09 178.68 209.52-0.1953c-0.6931-2.0517-16.733-12.669-20.342-14.731-7.7675-4.4399-15-8.2746-23.977-11.83-38.35-15.189-82.253-15.141-120.59 0.0621-12.427 4.928-24.037 11.266-34.578 18.742-2.1801 1.5466-9.1298 6.4551-10.038 7.9532zm-53.956 84.428 317.65-0.2591c-0.0555-5.6376-8.7896-25.824-12.161-32.444-1.3935-2.7372-4.4172-7.4594-5.1945-9.7246l-282.7 0.2662c-6.8833 11.636-14.22 27.269-17.596 42.162zm165.18 84.124c3.7055 0.7375 14.878 0.1754 19.389 0.1743l133.28-0.1386c2.4679-11.118 6.2272-27.696 5.3691-39.862l-158.19 0.218zm-170.44-37.609c-0.7653 9.074 2.7403 27.613 4.9743 36.094 2.7343 10.38 6.3442 20.715 10.795 29.791 9.7745 19.927 21.451 35.224 34.291 47.369 0.9154 0.8654 1.6254 1.7784 2.5694 2.6387 1.0017 0.9139 1.8791 1.4925 2.7989 2.4265 1.6824 1.7087 3.4325 3.0047 5.4207 4.6451 28.184 23.254 68.035 37.83 105.99 36.653l-0.172-159.78zm170.48 122.22c29.382 0.2846 58.926-0.0701 88.328-0.0797 2.6314-6e-4 8.8545 0.6216 10.593-0.4963 3.0728-1.9758 17.052-16.18 19.323-19.071l7.287-9.1173c1.9182-2.611 7.901-10.454 8.8772-13.566l-134.52 0.1381zm-16.26 40.749c-38.398-2.9038-69.816-15.655-97.687-38.673-39.707-32.793-63.475-85.129-60.021-139.5 5.6736-89.308 81.865-162.79 178.05-157.16 88.897 5.2081 163.22 82.032 157.31 177.9-2.732 44.356-22.608 84.75-54.236 113.54-32.882 29.936-77.832 47.332-123.42 43.884" fill="#020103"/>
<path d="m415.4 480.88c46.982 1.844 90.921-15.745 124.55-45.997 11.627-10.46 24.239-26.044 32.03-39.185 14.998-25.3 23.981-53 25.081-85.002 3.4044-99.049-74.976-178.5-170.13-181.75-99.042-3.3848-178.74 74.936-181.88 170.21-1.2166 36.989 9.5633 73.873 29.064 102.84 6.1113 9.0777 8.6443 11.55 14.351 18.836 2.393 3.0546 13.272 13.872 16.38 16.421 13.547 11.108 22.555 18.037 39.737 26.268 21.262 10.187 43.831 16.302 70.812 17.361zm-184.96-169.86v-14.624c0.0439-0.1057 0.0819-0.2381 0.1049-0.3268l0.2395-1.027c0.0629-0.4074 0.0882-1.0729 0.1114-1.5007 0.6905-12.71 2.7896-25.303 5.9848-37.543 3.1365-12.014 7.3956-23.158 12.524-33.723 10.187-20.984 27.868-45.693 45.085-59.698 7.9713-6.4846 8.6704-7.746 19.454-15.212 53.051-36.729 123.22-43.084 183.37-17.056 22.586 9.773 35.568 19.677 52.807 34.454 3.6647 3.1408 4.8413 5.0808 8.858 8.6624l10.731 12.386c20.174 24.142 34.108 56.48 39.354 88.145 0.5893 3.5583 1.8862 19.315 2.435 20.736v18.716l-2.2281 21.182c-4.7398 29.621-16.719 58.884-34.212 82.467-10.874 14.659-20.009 24.091-34.184 35.91-12.032 10.033-28.559 20.123-43.553 26.546-22.939 9.8266-49.055 16.221-77.473 15.877-27.471-0.3322-55.242-6.4134-76.993-16.727-24.258-11.502-39.893-23.064-55.368-37.853l-11.306-12.186c-12.404-15.826-17.647-22.222-27.526-42.564-7.757-15.97-13.582-35.676-16.184-53.936-0.4932-3.4619-1.5803-19.868-2.0355-21.106" fill="#020103"/>
<g fill="#fff">
<path d="m262.14 263.11c3.3755-14.893 10.713-30.526 17.596-42.162l282.7-0.2662c0.7773 2.2652 3.801 6.9874 5.1945 9.7246 3.371 6.6203 12.105 26.807 12.161 32.444z"/>
<path d="m349.19 347.08-0.1916-30.693-20.532 9e-3 -0.0726 15.97-41.474 0.1069-1.4689-15.474c-1.9581-0.5304-19.309-0.2044-22.142-0.1982 2.4077 47.166 30.436 93.38 68.333 116.6 4.231 2.5917 12.857 6.9307 18.064 8.2613l-0.5145-94.579zm69.404 5.3915c1.2342-4.1309-1.148-15.833-2.4967-19.525-2.0886-5.7167-5.2447-10.343-8.822-13.165-8.5017-6.7076-22.673-9.0377-34.631-3.8747-9.9266 4.2857-15.464 13.894-16.924 27.453-0.8649 8.032-0.3683 54.247-0.3669 65.956 2e-3 24.111-2.2093 34.572 20.784 45.204 8.2902 3.8333 26.48 9.6089 35.566 4.0314 7.577-4.6514 7.3842-26.239 7.1863-37.003l-21.166 0.0202c-0.104 5.4096 1.135 18.694-3.7312 20.424-3.0291 1.0769-7.7383-0.9507-9.7449-2.2929-9.7158-6.4996-7.8517-16.397-7.8662-28.148-0.0105-8.0745-0.011-16.149-0.0246-24.224-0.0137-8.2157-0.743-42.039 0.7934-47.538 2.8763-10.293 17.456-10.708 19.97 1.3527 0.8067 3.8704 0.0655 7.7063 0.6256 11.339zm-161.72-44.101 166.67-0.1584 0.172 159.7c-37.953 1.1767-77.805-13.392-105.99-36.634-1.9882-1.6396-3.7383-2.9347-5.4207-4.6429-0.9198-0.9334-1.7972-1.5117-2.7989-2.425-0.944-0.86-1.654-1.7728-2.5694-2.6376-12.84-12.139-24.516-27.428-34.291-47.345-4.4512-9.072-8.0611-19.402-10.795-29.777-2.234-8.4761-5.7396-27.006-4.9743-36.076"/>
<path d="m411.09 472.59c45.587 3.4478 90.538-13.948 123.42-43.884 31.628-28.795 51.504-69.188 54.236-113.54 5.9057-95.871-68.418-172.7-157.31-177.9-96.184-5.6347-172.38 67.849-178.05 157.16-3.4537 54.373 20.314 106.71 60.021 139.5 27.87 23.017 59.288 35.769 97.687 38.673zm4.3075 8.2874c-26.982-1.0593-49.55-7.1745-70.812-17.361-17.182-8.2315-26.19-15.16-39.737-26.268-3.1088-2.5489-13.987-13.366-16.38-16.421-5.707-7.2864-8.24-9.7585-14.351-18.836-19.501-28.967-30.28-65.85-29.064-102.84 3.1329-95.276 82.833-173.6 181.88-170.21 95.152 3.2517 173.53 82.705 170.13 181.75-1.0999 32.002-10.083 59.702-25.081 85.002-7.7908 13.142-20.403 28.725-32.03 39.185-33.627 30.252-77.566 47.841-124.55 45.997"/>
<path d="m427.16 307.63 158.19-0.218c0.8581 12.165-2.9012 28.744-5.3691 39.862l-133.28 0.1386c-4.511 1e-3 -15.683 0.5632-19.389-0.1743z"/>
</g>
<path d="m291.52 350.91c3.3177 16.779 14.951 34.974 25.037 47.798 2.0888 2.6558 9.6383 11.1 11.839 12.203 0.4447-16.604-0.0726-42.086-0.0525-59.831-2.2362-0.5647-30.233-0.2191-36.824-0.1698zm58.176 92.067c-5.2061-1.3311-13.832-5.6724-18.064-8.2655-37.897-23.228-65.925-69.465-68.333-116.66 2.8329-6e-3 20.184-0.3323 22.142 0.1981l1.4689 15.482 41.474-0.1072 0.0726-15.978 20.532-9e-3 0.1916 30.708 0.5145 94.626z" fill="#020103"/>
<path d="m316.09 178.68c0.9077-1.4981 7.8574-6.4066 10.038-7.9532 10.541-7.4755 22.151-13.814 34.578-18.742 38.338-15.203 82.24-15.251 120.59-0.0621 8.9768 3.5555 16.21 7.3902 23.977 11.83 3.6085 2.0628 19.649 12.68 20.342 14.731z" fill="#fff"/>
<path d="m427.24 389.65 134.52-0.1381c-0.9762 3.1113-6.959 10.954-8.8772 13.566l-7.287 9.1173c-2.2714 2.8908-16.25 17.096-19.323 19.071-1.7385 1.1179-7.9616 0.4957-10.593 0.4963-29.402 0.01-58.945 0.3643-88.328 0.0797z" fill="#fff"/>
<path d="m418.59 353.75-20.848 0.0114c-0.5601-3.6343 0.1811-7.4724-0.6256-11.345-2.5138-12.067-17.093-11.651-19.97-1.3532-1.5364 5.5012-0.8071 39.341-0.7934 47.561 0.0136 8.0784 0.0141 16.157 0.0246 24.236 0.0145 11.757-1.8496 21.659 7.8662 28.161 2.0066 1.343 6.7158 3.3718 9.7449 2.2941 4.8662-1.7317 3.6272-15.022 3.7312-20.434l21.166-0.0202c0.1979 10.77 0.3907 32.368-7.1863 37.022-9.0854 5.58-27.276-0.1984-35.566-4.0337-22.994-10.637-20.782-21.103-20.784-45.226-1e-3 -11.715-0.498-57.954 0.3669-65.989 1.4598-13.566 6.9973-23.179 16.924-27.467 11.958-5.1656 26.129-2.8344 34.631 3.8764 3.5773 2.8233 6.7334 7.4523 8.822 13.172 1.3487 3.6939 3.7309 15.402 2.4967 19.534" fill="#020103"/>
<path d="m291.52 350.91c6.5905-0.0493 34.588-0.3949 36.824 0.1698-0.0201 17.745 0.4972 43.227 0.0525 59.831-2.2006-1.1024-9.7501-9.547-11.839-12.203-10.086-12.824-21.72-31.019-25.037-47.798" fill="#fff"/>
</g>
</g>
</g>
</svg>
